<svg id="svg" version="1.1" width="400" height="373.3905579399141" viewBox="0 0 400 373.3905579399141" xmlns="http://www.w3.org/2000/svg" xmlns:xlink="http://www.w3.org/1999/xlink" ><g id="svgg"><path id="path0" d="M180.183 146.016 C 172.202 147.241,168.942 156.935,174.550 162.766 C 181.057 169.532,193.511 166.129,194.505 157.313 C 195.314 150.128,188.486 144.742,180.183 146.016 M38.769 154.902 C 38.706 157.726,38.707 160.752,38.770 161.625 L 38.885 163.212 41.362 163.212 C 47.984 163.212,52.942 165.416,54.654 169.120 C 55.813 171.628,55.918 200.685,54.779 203.638 C 53.310 207.446,48.965 209.524,42.473 209.524 L 38.842 209.524 38.842 216.436 L 38.842 223.347 66.573 223.252 L 94.304 223.156 94.429 222.222 C 94.498 221.709,94.708 221.129,94.896 220.934 C 95.084 220.739,95.238 220.128,95.238 219.577 C 95.238 218.863,95.695 218.177,96.825 217.195 C 97.698 216.436,98.875 215.411,99.440 214.917 C 100.713 213.802,100.739 212.712,99.533 210.938 C 99.020 210.182,98.599 209.363,98.599 209.119 C 98.599 208.787,97.864 208.751,95.705 208.976 C 90.514 209.517,90.213 209.481,90.077 208.305 C 89.814 206.014,84.524 205.051,83.580 207.122 C 82.988 208.421,83.513 209.737,84.965 210.593 C 86.609 211.564,86.784 212.885,85.268 212.885 C 83.357 212.885,81.419 211.134,81.419 209.406 C 81.419 208.576,81.212 207.323,80.958 206.622 C 80.514 205.394,80.547 205.302,81.845 204.113 C 83.328 202.753,83.329 202.757,81.313 201.026 C 78.600 198.698,75.205 201.127,77.109 204.033 C 77.687 204.915,77.244 206.501,76.336 206.800 C 74.807 207.304,73.979 202.666,75.260 200.778 C 75.772 200.024,76.190 199.185,76.190 198.913 C 76.190 196.716,78.233 196.140,82.820 197.044 L 84.034 197.284 84.034 195.187 C 84.034 192.928,83.855 192.778,82.187 193.640 C 81.574 193.957,80.251 194.166,79.055 194.135 C 77.802 194.102,76.747 194.277,76.384 194.579 C 75.874 195.002,75.629 194.964,74.773 194.327 C 73.181 193.145,73.259 191.906,74.997 190.755 C 75.799 190.225,77.655 188.600,79.122 187.145 C 81.707 184.581,83.217 183.855,83.847 184.874 C 83.974 185.079,84.536 185.247,85.097 185.247 C 85.658 185.247,86.734 185.562,87.488 185.947 C 88.243 186.331,88.938 186.568,89.033 186.473 C 89.429 186.077,85.292 179.652,83.675 178.151 C 83.297 177.801,80.439 174.235,76.940 169.748 C 75.018 167.283,73.348 165.182,73.230 165.079 C 72.512 164.453,70.589 161.681,70.590 161.273 C 70.593 160.521,76.145 160.477,78.149 161.213 C 82.088 162.659,84.034 162.649,84.034 161.182 C 84.034 158.890,89.012 157.583,92.102 159.064 C 95.476 160.680,97.161 161.625,99.271 163.082 C 100.565 163.975,101.710 164.706,101.817 164.706 C 101.923 164.706,102.546 165.103,103.200 165.589 C 106.983 168.399,111.868 169.839,113.027 168.485 C 113.400 168.050,113.819 167.694,113.958 167.694 C 114.467 167.694,123.071 171.955,123.337 172.339 C 123.887 173.134,123.602 174.679,122.758 175.472 C 121.221 176.916,118.379 176.590,113.725 174.437 C 105.388 170.579,102.176 169.715,99.945 170.732 C 98.725 171.288,98.543 171.860,99.189 173.105 C 101.194 176.971,98.759 177.886,91.427 176.023 C 85.408 174.493,83.206 175.813,85.909 179.329 C 90.749 185.627,95.655 189.044,95.076 185.714 C 94.449 182.106,94.463 182.071,96.581 182.086 C 98.752 182.100,100.467 183.005,100.467 184.136 C 100.467 184.542,100.233 184.874,99.947 184.874 C 98.972 184.874,99.053 185.839,100.164 187.469 C 101.207 188.999,101.249 189.196,100.856 190.755 C 100.332 192.836,100.596 193.695,101.858 194.012 C 103.335 194.383,104.949 195.661,104.949 196.460 C 104.949 198.182,106.482 199.813,108.100 199.813 C 108.377 199.813,109.465 200.588,110.519 201.536 C 112.376 203.206,112.471 203.244,113.611 202.771 C 115.946 201.804,118.136 202.126,120.088 203.726 C 122.070 205.350,124.391 205.629,126.566 204.505 C 128.010 203.758,128.383 204.310,127.479 205.856 C 125.296 209.593,119.239 210.005,115.905 206.645 C 113.639 204.360,113.360 204.363,113.043 206.674 C 112.919 207.582,112.525 208.938,112.167 209.687 C 111.372 211.355,112.151 213.276,113.920 214.009 C 114.934 214.429,114.964 214.525,115.090 217.814 L 115.219 221.188 116.655 222.428 C 121.685 226.775,140.269 226.665,147.051 222.248 C 150.111 220.255,151.480 218.412,153.159 214.027 C 153.638 212.776,153.777 200.562,153.321 199.823 C 153.096 199.460,148.952 199.357,147.246 199.672 L 146.032 199.896 146.032 204.387 C 146.032 211.271,145.192 213.104,142.070 213.036 C 138.962 212.968,138.189 210.931,138.189 202.805 C 138.189 196.062,136.654 192.649,132.634 190.451 C 131.889 190.043,130.775 189.411,130.159 189.046 C 129.137 188.441,126.944 187.765,124.276 187.234 C 123.004 186.981,122.923 186.368,124.161 186.368 C 124.662 186.368,125.165 186.219,125.277 186.037 C 125.390 185.855,126.114 185.596,126.887 185.461 C 128.245 185.225,129.515 184.834,131.466 184.050 C 135.664 182.363,138.402 179.889,140.184 176.171 C 144.783 166.574,141.181 157.361,130.906 152.444 C 125.258 149.741,125.752 149.767,79.544 149.767 L 38.882 149.767 38.769 154.902 M275.630 156.060 L 275.630 161.980 278.961 162.216 C 288.877 162.920,289.233 163.874,289.009 189.141 C 288.822 210.180,288.767 210.295,278.525 211.218 L 275.630 211.479 275.630 217.411 L 275.630 223.343 293.931 223.343 L 312.232 223.343 312.232 186.741 L 312.232 150.140 293.931 150.140 L 275.630 150.140 275.630 156.060 M226.517 169.810 C 220.975 171.136,220.652 171.247,216.824 173.137 C 212.919 175.064,209.222 178.670,207.973 181.770 C 205.783 187.206,207.148 195.670,210.635 198.271 C 211.359 198.811,212.161 199.451,212.417 199.692 C 213.326 200.549,217.309 202.814,218.913 203.386 C 220.527 203.962,222.342 204.413,225.584 205.045 C 234.067 206.699,236.527 207.158,238.655 207.486 C 245.839 208.591,249.357 211.506,247.560 214.863 C 246.169 217.462,243.910 218.267,238.095 218.235 C 233.503 218.210,232.417 218.043,227.955 216.679 C 223.805 215.411,220.351 212.961,218.101 209.692 L 216.958 208.030 211.000 208.030 L 205.042 208.030 205.042 215.282 C 205.042 224.482,204.412 223.552,210.554 223.415 C 215.479 223.305,223.043 223.920,229.318 224.941 C 243.936 227.319,260.117 224.273,266.476 217.944 C 268.639 215.792,269.311 214.738,270.722 211.280 C 270.957 210.706,271.148 208.603,271.148 206.606 C 271.148 199.630,268.910 196.413,261.634 192.930 C 258.902 191.623,257.882 191.301,253.221 190.278 C 251.681 189.940,249.812 189.510,249.070 189.323 C 248.327 189.135,247.246 188.982,246.669 188.982 C 246.091 188.982,245.102 188.825,244.471 188.632 C 243.840 188.440,241.475 187.927,239.216 187.493 C 236.956 187.059,234.435 186.567,233.613 186.400 C 224.877 184.616,226.978 178.870,236.907 177.393 C 245.490 176.116,254.799 179.677,259.147 185.901 L 259.995 187.115 265.572 187.115 L 271.148 187.115 271.148 179.085 L 271.148 171.055 268.254 171.104 C 266.662 171.131,264.099 171.257,262.558 171.384 C 259.646 171.625,254.587 171.194,247.246 170.080 C 241.540 169.214,229.655 169.059,226.517 169.810 M158.814 177.311 L 158.917 183.567 162.838 183.765 C 171.203 184.187,171.989 185.354,171.989 197.360 C 171.989 209.244,171.434 210.096,163.212 210.824 L 158.917 211.204 158.917 217.180 L 158.917 223.156 176.844 223.156 L 194.771 223.156 194.867 197.106 L 194.963 171.055 176.838 171.055 L 158.712 171.055 158.814 177.311 M318.581 176.471 L 318.581 181.886 319.981 181.913 C 324.456 182.001,325.474 186.533,321.615 189.185 C 320.870 189.696,319.179 190.839,317.856 191.724 C 314.792 193.773,314.805 193.547,317.551 196.876 C 325.617 206.654,326.460 208.006,325.672 209.909 C 325.193 211.066,324.148 211.532,321.121 211.941 L 319.366 212.178 319.253 217.622 C 319.183 221.013,319.282 223.119,319.514 223.208 C 319.720 223.286,328.880 223.306,339.869 223.253 L 359.851 223.156 359.953 217.335 L 360.056 211.514 357.339 211.033 C 353.233 210.307,351.660 209.274,348.456 205.198 C 348.146 204.804,346.214 202.320,344.161 199.678 C 342.109 197.036,339.876 194.196,339.199 193.367 C 337.550 191.347,337.702 190.985,341.176 188.682 C 346.819 184.940,348.707 184.181,353.315 183.799 L 356.116 183.567 356.223 178.151 C 356.282 175.173,356.237 172.358,356.123 171.895 L 355.915 171.055 337.248 171.055 L 318.581 171.055 318.581 176.471 M90.383 188.769 C 90.383 189.647,91.720 191.223,92.464 191.223 C 93.831 191.223,93.548 190.389,91.874 189.480 C 91.054 189.035,90.383 188.715,90.383 188.769 M93.441 194.184 C 93.821 194.794,95.244 195.705,95.816 195.705 C 96.175 195.705,95.962 194.338,95.537 193.912 C 94.719 193.094,92.907 193.329,93.441 194.184 M358.591 219.234 C 358.984 222.046,355.831 223.621,354.270 221.392 C 352.796 219.289,354.016 217.271,356.656 217.443 L 358.357 217.554 358.591 219.234 " stroke="none" fill="#cc0607" fill-rule="evenodd"></path><path id="path1" d="M179.645 145.445 C 169.119 148.366,167.928 161.312,177.778 165.749 C 188.020 170.363,198.752 160.889,194.027 151.406 C 191.600 146.536,185.228 143.895,179.645 145.445 M188.498 147.011 C 194.867 150.045,196.573 158.178,191.835 162.916 C 184.756 169.995,171.802 165.526,171.802 156.005 C 171.802 147.990,180.602 143.250,188.498 147.011 M38.368 149.547 C 37.912 150.003,37.793 151.334,37.751 156.407 C 37.687 164.173,37.395 163.765,43.271 164.121 C 49.417 164.493,53.443 166.689,54.426 170.205 C 55.090 172.585,54.765 202.524,54.060 203.813 C 52.115 207.370,48.121 209.000,40.725 209.254 C 37.733 209.357,37.809 209.158,37.759 217.029 C 37.726 222.226,37.795 222.920,38.405 223.472 C 39.229 224.217,93.139 224.440,94.516 223.703 C 94.956 223.467,95.239 222.921,95.240 222.302 C 95.242 221.745,95.494 220.807,95.801 220.219 C 96.107 219.630,96.359 218.941,96.359 218.687 C 96.359 218.432,97.366 217.432,98.598 216.464 C 101.733 214.002,101.787 212.224,98.841 208.460 C 98.471 207.987,94.569 208.080,92.063 208.623 C 91.041 208.844,90.003 208.154,90.691 207.710 C 91.173 207.399,89.018 205.789,88.121 205.789 C 87.927 205.789,87.768 205.602,87.768 205.373 C 87.768 205.116,87.376 205.040,86.741 205.173 C 86.176 205.291,85.196 205.493,84.563 205.622 C 81.962 206.150,81.882 209.960,84.447 211.095 C 85.656 211.630,85.868 212.143,84.874 212.128 C 81.367 212.074,80.301 204.605,83.642 203.492 C 84.750 203.123,80.645 199.066,79.164 199.066 C 77.069 199.066,75.189 203.144,76.623 204.578 C 76.950 204.905,76.931 205.160,76.545 205.626 C 75.400 207.005,74.646 202.599,75.752 200.991 C 76.127 200.446,76.654 199.447,76.923 198.772 C 77.570 197.152,78.500 196.671,80.037 197.161 C 80.695 197.370,81.905 197.591,82.726 197.650 L 84.220 197.759 84.333 195.369 C 84.476 192.331,84.169 192.022,82.013 193.036 C 80.622 193.689,80.154 193.756,79.390 193.407 C 78.655 193.073,78.209 193.105,77.264 193.563 C 75.728 194.307,74.550 193.905,74.392 192.583 C 74.308 191.886,74.445 191.597,74.858 191.597 C 75.180 191.597,75.444 191.429,75.444 191.223 C 75.444 191.018,75.634 190.850,75.867 190.850 C 76.100 190.850,77.117 190.009,78.128 188.982 C 79.139 187.955,80.114 187.115,80.294 187.115 C 80.474 187.115,80.717 186.821,80.833 186.461 C 81.086 185.681,82.963 184.723,83.269 185.219 C 83.386 185.407,83.941 185.659,84.504 185.778 C 85.067 185.897,85.935 186.078,86.432 186.181 C 87.585 186.419,89.636 188.130,89.636 188.854 C 89.636 191.099,92.519 192.561,94.254 191.196 C 95.434 190.268,95.514 189.729,94.473 189.729 C 92.735 189.729,89.674 187.317,89.648 185.928 C 89.641 185.583,89.384 185.049,89.076 184.741 C 88.768 184.432,88.515 183.990,88.515 183.757 C 88.515 183.339,89.857 184.454,91.769 186.461 C 94.177 188.989,96.992 186.717,95.145 183.737 C 94.532 182.748,95.333 182.172,96.632 182.666 C 97.124 182.853,97.942 183.007,98.449 183.007 C 99.569 183.007,100.095 184.074,99.217 184.565 C 98.284 185.087,98.449 186.893,99.523 187.916 C 100.377 188.730,100.429 188.979,100.222 191.247 L 99.999 193.699 102.194 194.795 C 103.837 195.616,104.359 196.065,104.270 196.583 C 104.080 197.693,105.936 200.187,106.952 200.187 C 107.841 200.187,110.204 201.716,111.401 203.066 C 112.063 203.814,113.680 203.852,114.127 203.130 C 114.567 202.418,118.244 202.764,118.989 203.587 C 120.552 205.314,122.853 206.321,124.158 205.849 C 124.817 205.611,125.754 205.415,126.240 205.415 L 127.124 205.415 126.085 206.500 C 125.056 207.574,124.420 207.765,120.206 208.265 C 118.491 208.468,118.448 208.446,116.477 206.366 C 113.826 203.570,112.704 203.565,112.404 206.349 C 112.294 207.376,111.999 208.584,111.751 209.032 C 110.709 210.909,111.235 212.935,113.090 214.196 C 114.398 215.084,114.416 215.132,114.465 217.867 C 114.577 224.138,117.393 225.519,130.719 225.843 C 141.346 226.101,146.758 224.505,150.606 219.981 C 153.566 216.501,154.622 212.507,154.622 204.790 C 154.622 198.856,154.761 199.011,149.575 199.146 L 145.472 199.253 145.240 204.855 C 144.962 211.571,145.085 210.826,144.094 211.750 C 143.085 212.690,141.163 212.742,140.097 211.858 C 139.371 211.255,139.282 210.647,138.963 204.054 C 138.480 194.056,137.424 192.083,130.827 188.839 C 129.638 188.255,128.373 187.627,128.016 187.445 C 127.660 187.264,126.945 187.115,126.429 187.115 C 124.918 187.115,125.346 186.570,127.264 186.051 C 128.240 185.787,129.330 185.414,129.687 185.223 C 130.043 185.031,130.592 184.874,130.906 184.874 C 131.219 184.874,131.768 184.725,132.125 184.542 C 132.481 184.359,133.368 183.920,134.096 183.565 C 141.275 180.066,144.835 168.920,141.294 161.028 C 139.434 156.883,133.162 152.022,127.731 150.518 C 126.807 150.262,125.546 149.867,124.930 149.639 C 122.971 148.916,39.089 148.826,38.368 149.547 M275.111 149.980 C 274.757 150.905,274.854 161.841,275.223 162.423 C 275.453 162.786,276.591 162.981,279.045 163.075 C 288.261 163.431,288.329 163.603,288.328 186.754 C 288.328 209.832,288.154 210.271,278.997 210.271 C 276.077 210.271,275.608 210.362,275.270 210.993 C 274.817 211.840,274.750 222.927,275.193 223.626 C 275.428 223.996,279.432 224.076,293.955 224.000 L 312.418 223.903 312.418 186.741 L 312.418 149.580 293.879 149.483 C 277.216 149.396,275.316 149.446,275.111 149.980 M123.129 150.162 C 135.552 151.843,143.730 160.902,141.922 170.979 C 140.797 177.245,137.195 181.748,131.466 184.050 C 129.515 184.834,128.245 185.225,126.887 185.461 C 126.114 185.596,125.390 185.855,125.277 186.037 C 125.165 186.219,124.662 186.368,124.161 186.368 C 122.923 186.368,123.004 186.981,124.276 187.234 C 126.944 187.765,129.137 188.441,130.159 189.046 C 130.775 189.411,131.889 190.043,132.634 190.451 C 136.654 192.649,138.189 196.062,138.189 202.805 C 138.189 210.931,138.962 212.968,142.070 213.036 C 145.192 213.104,146.032 211.271,146.032 204.387 L 146.032 199.896 147.246 199.672 C 148.952 199.357,153.096 199.460,153.321 199.823 C 153.777 200.562,153.638 212.776,153.159 214.027 C 150.448 221.107,146.725 223.895,138.275 225.173 C 130.281 226.382,119.671 225.035,116.655 222.428 L 115.219 221.188 115.090 217.814 C 114.964 214.525,114.934 214.429,113.920 214.009 C 112.151 213.276,111.372 211.355,112.167 209.687 C 112.525 208.938,112.919 207.582,113.043 206.674 C 113.360 204.363,113.639 204.360,115.905 206.645 C 119.239 210.005,125.296 209.593,127.479 205.856 C 128.383 204.310,128.010 203.758,126.566 204.505 C 124.391 205.629,122.070 205.350,120.088 203.726 C 118.136 202.126,115.946 201.804,113.611 202.771 C 112.471 203.244,112.376 203.206,110.519 201.536 C 109.465 200.588,108.377 199.813,108.100 199.813 C 106.482 199.813,104.949 198.182,104.949 196.460 C 104.949 195.661,103.335 194.383,101.858 194.012 C 100.596 193.695,100.332 192.836,100.856 190.755 C 101.249 189.196,101.207 188.999,100.164 187.469 C 99.053 185.839,98.972 184.874,99.947 184.874 C 100.233 184.874,100.467 184.542,100.467 184.136 C 100.467 183.005,98.752 182.100,96.581 182.086 C 94.463 182.071,94.449 182.106,95.076 185.714 C 95.655 189.044,90.749 185.627,85.909 179.329 C 83.206 175.813,85.408 174.493,91.427 176.023 C 98.759 177.886,101.194 176.971,99.189 173.105 C 98.543 171.860,98.725 171.288,99.945 170.732 C 102.176 169.715,105.388 170.579,113.725 174.437 C 118.379 176.590,121.221 176.916,122.758 175.472 C 123.602 174.679,123.887 173.134,123.337 172.339 C 123.071 171.955,114.467 167.694,113.958 167.694 C 113.819 167.694,113.400 168.050,113.027 168.485 C 111.868 169.839,106.983 168.399,103.200 165.589 C 102.546 165.103,101.923 164.706,101.817 164.706 C 101.710 164.706,100.565 163.975,99.271 163.082 C 97.161 161.625,95.476 160.680,92.102 159.064 C 89.012 157.583,84.034 158.890,84.034 161.182 C 84.034 162.649,82.088 162.659,78.149 161.213 C 76.145 160.477,70.593 160.521,70.590 161.273 C 70.589 161.681,72.512 164.453,73.230 165.079 C 73.348 165.182,75.018 167.283,76.940 169.748 C 80.439 174.235,83.297 177.801,83.675 178.151 C 85.292 179.652,89.429 186.077,89.033 186.473 C 88.938 186.568,88.243 186.331,87.488 185.947 C 86.734 185.562,85.658 185.247,85.097 185.247 C 84.536 185.247,83.974 185.079,83.847 184.874 C 83.217 183.855,81.707 184.581,79.122 187.145 C 77.655 188.600,75.799 190.225,74.997 190.755 C 73.259 191.906,73.181 193.145,74.773 194.327 C 75.629 194.964,75.874 195.002,76.384 194.579 C 76.747 194.277,77.802 194.102,79.055 194.135 C 80.251 194.166,81.574 193.957,82.187 193.640 C 83.855 192.778,84.034 192.928,84.034 195.187 L 84.034 197.284 82.820 197.044 C 78.233 196.140,76.190 196.716,76.190 198.913 C 76.190 199.185,75.772 200.024,75.260 200.778 C 73.979 202.666,74.807 207.304,76.336 206.800 C 77.244 206.501,77.687 204.915,77.109 204.033 C 75.205 201.127,78.600 198.698,81.313 201.026 C 83.329 202.757,83.328 202.753,81.845 204.113 C 80.547 205.302,80.514 205.394,80.958 206.622 C 81.212 207.323,81.419 208.576,81.419 209.406 C 81.419 211.134,83.357 212.885,85.268 212.885 C 86.784 212.885,86.609 211.564,84.965 210.593 C 83.513 209.737,82.988 208.421,83.580 207.122 C 84.524 205.051,89.814 206.014,90.077 208.305 C 90.213 209.481,90.514 209.517,95.705 208.976 C 97.864 208.751,98.599 208.787,98.599 209.119 C 98.599 209.363,99.020 210.182,99.533 210.938 C 100.739 212.712,100.713 213.802,99.440 214.917 C 98.875 215.411,97.698 216.436,96.825 217.195 C 95.695 218.177,95.238 218.863,95.238 219.577 C 95.238 220.128,95.084 220.739,94.896 220.934 C 94.708 221.129,94.498 221.709,94.429 222.222 L 94.304 223.156 66.573 223.252 L 38.842 223.347 38.842 216.436 L 38.842 209.524 42.473 209.524 C 48.965 209.524,53.310 207.446,54.779 203.638 C 55.918 200.685,55.813 171.628,54.654 169.120 C 52.942 165.416,47.984 163.212,41.362 163.212 L 38.885 163.212 38.770 161.625 C 38.707 160.752,38.706 157.726,38.769 154.902 L 38.882 149.767 79.544 149.767 C 106.061 149.767,121.224 149.904,123.129 150.162 M312.232 186.741 L 312.232 223.343 293.931 223.343 L 275.630 223.343 275.630 217.411 L 275.630 211.479 278.525 211.218 C 288.767 210.295,288.822 210.180,289.009 189.141 C 289.233 163.874,288.877 162.920,278.961 162.216 L 275.630 161.980 275.630 156.060 L 275.630 150.140 293.931 150.140 L 312.232 150.140 312.232 186.741 M91.317 159.477 C 91.443 159.683,91.877 159.851,92.280 159.851 C 92.682 159.851,93.678 160.271,94.491 160.784 C 95.305 161.298,96.142 161.718,96.351 161.718 C 96.561 161.718,96.732 161.886,96.732 162.092 C 96.732 162.297,96.970 162.465,97.261 162.465 C 97.552 162.465,97.846 162.594,97.915 162.752 C 98.348 163.751,107.442 168.878,109.914 169.517 C 111.376 169.895,113.539 169.454,113.539 168.778 C 113.539 168.032,121.823 171.643,122.590 172.723 C 124.034 174.756,120.686 176.672,117.758 175.488 C 116.326 174.909,114.233 173.999,113.450 173.615 C 113.094 173.439,112.548 173.296,112.237 173.296 C 111.926 173.296,111.671 173.165,111.671 173.004 C 111.671 172.703,110.956 172.384,106.818 170.840 C 103.373 169.554,99.821 169.568,98.597 170.871 L 97.718 171.807 98.576 173.334 C 99.786 175.487,99.188 176.657,96.878 176.657 C 96.000 176.657,95.178 176.489,95.051 176.284 C 94.924 176.078,94.276 175.910,93.610 175.910 C 92.944 175.910,92.240 175.765,92.045 175.587 C 90.026 173.749,84.066 174.800,84.022 177.003 C 84.012 177.483,83.911 177.460,83.470 176.878 C 83.173 176.485,82.542 175.729,82.069 175.197 C 81.595 174.665,80.512 173.305,79.662 172.176 C 78.812 171.046,77.726 169.673,77.247 169.125 C 76.769 168.577,75.705 167.251,74.883 166.177 C 74.062 165.103,72.929 163.682,72.366 163.019 L 71.342 161.814 73.490 161.571 C 75.625 161.329,77.560 161.507,78.992 162.075 C 79.402 162.238,80.209 162.561,80.783 162.792 C 82.839 163.618,84.407 163.123,84.407 161.646 C 84.407 159.647,90.282 157.802,91.317 159.477 M225.143 169.496 C 223.566 169.840,222.151 170.247,222.000 170.401 C 221.848 170.556,221.342 170.682,220.875 170.682 C 220.408 170.682,219.935 170.828,219.824 171.007 C 219.714 171.186,219.156 171.426,218.585 171.540 C 213.684 172.520,207.377 179.544,206.474 185.028 C 204.803 195.167,209.677 201.289,222.435 205.075 C 223.066 205.262,223.979 205.415,224.463 205.415 C 224.947 205.415,225.860 205.575,226.491 205.771 C 227.490 206.080,235.655 207.672,238.842 208.179 C 248.100 209.651,250.458 214.509,243.285 217.330 C 241.400 218.071,230.396 217.457,229.854 216.581 C 229.741 216.397,229.333 216.246,228.947 216.246 C 228.117 216.246,223.584 214.349,223.405 213.926 C 223.336 213.764,223.065 213.632,222.802 213.632 C 222.306 213.632,219.755 211.019,218.093 208.809 L 217.138 207.539 211.402 207.431 C 203.576 207.283,204.260 206.450,204.381 215.983 L 204.482 223.903 213.541 224.143 C 218.524 224.275,223.062 224.505,223.625 224.655 C 233.412 227.245,256.623 226.143,260.112 222.923 C 260.307 222.743,260.769 222.596,261.139 222.596 C 261.509 222.596,261.811 222.428,261.811 222.222 C 261.811 222.017,262.048 221.849,262.337 221.849 C 264.017 221.849,270.002 215.542,270.606 213.134 C 270.744 212.583,271.007 212.039,271.190 211.926 C 271.623 211.658,271.623 201.868,271.190 201.022 C 271.007 200.665,270.566 199.775,270.209 199.043 C 269.208 196.990,265.750 193.838,264.500 193.838 C 264.288 193.838,264.059 193.711,263.990 193.557 C 263.768 193.058,260.052 191.223,259.262 191.223 C 258.840 191.223,258.402 191.074,258.289 190.891 C 258.176 190.708,257.536 190.473,256.866 190.367 C 256.197 190.262,253.884 189.818,251.727 189.382 C 247.937 188.614,245.991 188.239,241.643 187.439 C 229.991 185.293,228.016 184.331,229.335 181.441 C 230.903 178.005,245.974 176.411,249.281 179.332 C 249.476 179.504,249.846 179.645,250.103 179.645 C 251.556 179.645,256.433 183.391,258.559 186.140 L 259.602 187.488 265.548 187.488 L 271.494 187.488 271.601 179.455 C 271.660 175.037,271.653 171.255,271.584 171.052 C 271.507 170.822,268.222 170.682,262.906 170.682 C 258.202 170.682,253.636 170.523,252.760 170.328 C 246.173 168.868,230.229 168.387,225.143 169.496 M247.246 170.080 C 254.587 171.194,259.646 171.625,262.558 171.384 C 264.099 171.257,266.662 171.131,268.254 171.104 L 271.148 171.055 271.148 179.085 L 271.148 187.115 265.572 187.115 L 259.995 187.115 259.147 185.901 C 254.799 179.677,245.490 176.116,236.907 177.393 C 228.325 178.670,225.117 183.556,231.373 185.824 C 232.204 186.125,233.250 186.348,239.216 187.493 C 241.475 187.927,243.840 188.440,244.471 188.632 C 245.102 188.825,246.091 188.982,246.669 188.982 C 247.246 188.982,248.327 189.135,249.070 189.323 C 249.812 189.510,251.681 189.940,253.221 190.278 C 257.882 191.301,258.902 191.623,261.634 192.930 C 268.910 196.413,271.148 199.630,271.148 206.606 C 271.148 208.603,270.957 210.706,270.722 211.280 C 269.311 214.738,268.639 215.792,266.476 217.944 C 260.117 224.273,243.936 227.319,229.318 224.941 C 223.043 223.920,215.479 223.305,210.554 223.415 C 204.412 223.552,205.042 224.482,205.042 215.282 L 205.042 208.030 211.000 208.030 L 216.958 208.030 218.101 209.692 C 220.351 212.961,223.805 215.411,227.955 216.679 C 232.417 218.043,233.503 218.210,238.095 218.235 C 243.910 218.267,246.169 217.462,247.560 214.863 C 249.357 211.506,245.839 208.591,238.655 207.486 C 236.527 207.158,234.067 206.699,225.584 205.045 C 222.342 204.413,220.527 203.962,218.913 203.386 C 217.309 202.814,213.326 200.549,212.417 199.692 C 212.161 199.451,211.359 198.811,210.635 198.271 C 207.148 195.670,205.783 187.206,207.973 181.770 C 209.222 178.670,212.919 175.064,216.824 173.137 C 220.652 171.247,220.975 171.136,226.517 169.810 C 229.655 169.059,241.540 169.214,247.246 170.080 M158.150 171.159 C 158.048 171.426,158.010 174.411,158.067 177.792 L 158.170 183.940 159.477 184.032 C 170.971 184.838,171.432 185.350,171.423 197.323 C 171.414 208.901,170.813 209.800,162.838 210.166 C 157.774 210.398,157.983 210.096,157.983 217.180 C 157.983 224.989,155.522 224.117,177.218 224.001 L 195.518 223.903 195.518 197.386 L 195.518 170.868 176.927 170.771 C 161.965 170.694,158.300 170.769,158.150 171.159 M318.086 170.927 C 317.601 171.413,317.798 181.767,318.301 182.163 C 318.557 182.365,319.503 182.643,320.402 182.781 C 325.543 183.566,324.666 186.659,318.132 190.781 C 313.503 193.701,313.636 193.329,316.198 196.180 C 316.793 196.843,318.532 198.982,320.062 200.934 C 321.592 202.885,323.137 204.799,323.495 205.186 C 326.521 208.459,325.715 210.831,321.490 211.087 C 320.111 211.170,318.850 211.370,318.688 211.531 C 318.205 212.013,318.097 222.439,318.567 223.317 C 319.136 224.379,360.151 224.557,360.558 223.499 C 360.682 223.174,360.784 220.239,360.784 216.976 C 360.784 210.199,360.819 210.271,357.514 210.271 C 353.322 210.271,351.706 208.724,340.581 194.061 L 338.342 191.109 340.615 189.672 C 341.864 188.882,343.048 188.235,343.246 188.235 C 343.443 188.235,343.604 188.087,343.604 187.905 C 343.604 187.724,343.898 187.483,344.258 187.369 C 344.617 187.256,345.500 186.837,346.218 186.439 C 348.719 185.055,351.558 184.294,355.182 184.034 L 356.489 183.940 356.489 177.404 L 356.489 170.868 337.414 170.772 C 326.922 170.718,318.225 170.788,318.086 170.927 M194.867 197.106 L 194.771 223.156 176.844 223.156 L 158.917 223.156 158.917 217.180 L 158.917 211.204 163.212 210.824 C 171.434 210.096,171.989 209.244,171.989 197.360 C 171.989 185.354,171.203 184.187,162.838 183.765 L 158.917 183.567 158.814 177.311 L 158.712 171.055 176.838 171.055 L 194.963 171.055 194.867 197.106 M356.123 171.895 C 356.237 172.358,356.282 175.173,356.223 178.151 L 356.116 183.567 353.315 183.799 C 348.707 184.181,346.819 184.940,341.176 188.682 C 337.702 190.985,337.550 191.347,339.199 193.367 C 339.876 194.196,342.109 197.036,344.161 199.678 C 346.214 202.320,348.146 204.804,348.456 205.198 C 351.660 209.274,353.233 210.307,357.339 211.033 L 360.056 211.514 359.953 217.335 L 359.851 223.156 339.869 223.253 C 328.880 223.306,319.720 223.286,319.514 223.208 C 319.282 223.119,319.183 221.013,319.253 217.622 L 319.366 212.178 321.121 211.941 C 326.762 211.179,327.337 209.455,323.607 204.482 C 321.532 201.715,321.233 201.340,317.551 196.876 C 314.805 193.547,314.792 193.773,317.856 191.724 C 319.179 190.839,320.870 189.696,321.615 189.185 C 325.474 186.533,324.456 182.001,319.981 181.913 L 318.581 181.886 318.581 176.471 L 318.581 171.055 337.248 171.055 L 355.915 171.055 356.123 171.895 M93.368 190.756 C 93.374 191.777,91.567 191.241,90.970 190.045 C 90.647 189.398,90.383 188.823,90.383 188.769 C 90.383 188.715,91.054 189.035,91.874 189.480 C 92.694 189.925,93.366 190.500,93.368 190.756 M92.453 193.438 C 92.335 193.629,92.419 193.898,92.641 194.035 C 92.862 194.172,93.189 194.667,93.367 195.135 C 94.001 196.802,96.966 196.688,96.546 195.013 C 96.108 193.268,93.240 192.165,92.453 193.438 M95.537 193.912 C 95.962 194.338,96.175 195.705,95.816 195.705 C 95.244 195.705,93.821 194.794,93.441 194.184 C 92.907 193.329,94.719 193.094,95.537 193.912 M354.322 218.032 C 352.823 219.689,353.998 222.222,356.266 222.222 C 358.241 222.222,358.892 221.386,358.591 219.234 L 358.357 217.554 356.656 217.443 C 355.371 217.359,354.801 217.503,354.322 218.032 " stroke="none" fill="#e59c9e" fill-rule="evenodd"></path></g></svg>